<?xml version="1.0"?>
<svg xmlns="http://www.w3.org/2000/svg" xmlns:xlink="http://www.w3.org/1999/xlink" version="1.1" id="Capa_1" x="0px" y="0px" viewBox="0 0 513.551 513.551" style="enable-background:new 0 0 513.551 513.551;" xml:space="preserve" width="512px" height="512px" class=""><g><g>
	<g>
		<path d="M432.722,390.4c51.2-44.8,81.067-108.8,78.933-177.067v-42.667c0-12.8-8.533-21.333-21.333-21.333h-21.333    C475.389,89.6,447.656,36.267,394.322,6.4c-8.533-6.4-21.333-2.133-27.733,6.4l-78.933,136.533H87.122v-128    C87.122,8.533,78.589,0,65.789,0h-64v42.667h42.667v170.667c0,68.267,29.867,132.267,81.067,177.067    c-32,14.933-46.933,53.333-32,85.333s53.333,46.933,85.333,32c21.333-10.667,36.267-34.133,36.267-59.733c0-2.133,0-6.4,0-8.533    c42.667,12.8,87.467,12.8,130.133,0c0,2.133-2.133,6.4-2.133,8.533c0,36.267,27.733,64,64,64c36.267,0,64-27.733,64-64    C471.122,422.4,456.189,398.933,432.722,390.4z M392.189,53.333c27.733,23.467,40.533,61.867,34.133,98.133h-89.6L392.189,53.333z     M151.122,469.333c-12.8,0-21.333-8.533-21.333-21.333c0-12.8,8.533-21.333,21.333-21.333c12.8,0,21.333,8.533,21.333,21.333    C172.456,460.8,163.922,469.333,151.122,469.333z M279.122,405.333c-106.667,0-192-85.333-192-192V192h384v21.333    C471.122,320,385.789,405.333,279.122,405.333z M407.122,469.333c-12.8,0-21.333-8.533-21.333-21.333    c0-12.8,8.533-21.333,21.333-21.333c12.8,0,21.333,8.533,21.333,21.333C428.456,460.8,419.922,469.333,407.122,469.333z" data-original="#000000" class="active-path" data-old_color="#AE0A70" fill="#B021B7"/>
	</g>
</g><g>
	<g>
		<path d="M345.255,224c-21.333-14.933-46.933-12.8-66.133,2.133c-19.2-14.933-46.933-14.933-66.133-2.133    c-23.467,19.2-32,53.333-17.067,81.067c19.2,29.867,42.667,53.333,70.4,72.533c6.4,4.267,17.067,4.267,23.467,0    c27.733-19.2,53.333-42.667,70.4-72.533C377.255,277.333,370.855,243.2,345.255,224z M323.922,285.867    c-12.8,19.2-27.733,34.133-44.8,46.933c-17.067-12.8-34.133-27.733-44.8-46.933c-12.8-25.6,12.8-36.267,29.867-19.2    c8.533,8.533,21.333,8.533,29.867,0C311.122,249.6,338.855,258.133,323.922,285.867z" data-original="#000000" class="active-path" data-old_color="#AE0A70" fill="#B021B7"/>
	</g>
</g></g> </svg>
